<svg width="17" height="18" viewBox="0 0 17 18" fill="none" xmlns="http://www.w3.org/2000/svg">
<g clip-path="url(#clip0_158_507)">
<path d="M8.00954 9.95H9.51669V11H8.00954V9.95ZM9.01431 4C11.7021 4.077 12.8726 5.967 11.275 7.3845C10.8581 7.7345 10.1849 7.9655 9.85329 8.2595C9.51669 8.55 9.51669 8.9 9.51669 9.25H8.00954C8.00954 8.6655 8.00954 8.172 8.34613 7.822C8.67771 7.472 9.3509 7.2655 9.76788 7.0345C10.9837 6.2505 10.6822 5.141 9.01431 5.05C8.61458 5.05 8.23123 5.16062 7.94859 5.35754C7.66594 5.55445 7.50715 5.82152 7.50715 6.1H6C6 5.54305 6.31758 5.0089 6.88287 4.61508C7.44816 4.22125 8.21486 4 9.01431 4Z" fill="#1A0000"/>
<path d="M8.5 0C3.825 0 0 3.58 0 8C0.0425 10.15 0.901 12.17 2.3375 13.5C2.3375 14.1 1.9805 15.67 0 18C2.0145 17.89 3.944 17 5.4995 15.5C6.4685 15.83 7.4885 16 8.5 16C13.175 16 17 12.42 17 8C17 3.58 13.175 0 8.5 0ZM8.5 14C4.743 14 1.7 11.31 1.7 8C1.7 4.69 4.743 2 8.5 2C12.257 2 15.3 4.69 15.3 8C15.3 11.31 12.257 14 8.5 14Z" fill="#220202"/>
</g>
<defs>
<clipPath id="clip0_158_507">
<rect width="17" height="18" fill="white"/>
</clipPath>
</defs>
</svg>
